<?xml version="1.0" encoding="UTF-8" standalone="no"?>
<!DOCTYPE svg PUBLIC "-//W3C//DTD SVG 1.1//EN" "http://www.w3.org/Graphics/SVG/1.1/DTD/svg11.dtd">
<svg width="213" height="186" viewBox="0 0 213 186" version="1.1" xmlns="http://www.w3.org/2000/svg" xmlns:xlink="http://www.w3.org/1999/xlink" xml:space="preserve" xmlns:serif="http://www.serif.com/" style="fill-rule:evenodd;clip-rule:evenodd;stroke-linejoin:round;stroke-miterlimit:2;">
    <g>
		<path d="M 95.75 185.24 C94.51,184.97 94.00,183.88 94.00,181.50 C94.00,179.15 93.48,178.01 92.25,177.69 C90.67,177.28 90.68,177.22 92.36,177.12 C93.62,177.04 94.02,176.49 93.61,175.42 C93.27,174.55 92.98,172.86 92.96,171.67 C92.93,169.66 92.75,169.71 90.50,172.47 C89.00,174.30 88.48,175.68 89.12,176.08 C89.70,176.43 89.17,176.98 87.96,177.30 C86.20,177.76 85.85,178.42 86.24,180.50 C86.63,182.50 86.40,182.98 85.29,182.56 C84.49,182.25 83.44,182.00 82.95,182.00 C82.47,182.00 84.19,179.16 86.79,175.68 C89.39,172.20 92.25,168.27 93.14,166.93 C94.73,164.56 94.78,164.69 95.51,172.50 C95.93,176.90 96.67,181.57 97.16,182.89 C98.19,185.64 98.11,185.77 95.75,185.24 ZM 104.61 183.75 C105.44,181.26 105.46,180.87 104.95,173.07 C104.73,169.72 105.02,167.49 105.69,167.27 C106.29,167.07 109.41,169.87 112.61,173.50 C117.48,179.01 118.56,179.80 119.15,178.30 C119.60,177.17 119.87,178.17 119.90,181.00 L 119.94 185.50 L 117.22 182.48 C115.72,180.81 112.52,177.21 110.11,174.48 L 105.72 169.50 L 106.36 175.90 C106.71,179.42 107.45,182.83 107.99,183.49 C109.21,184.96 108.29,186.00 105.77,186.00 C104.24,186.00 104.01,185.56 104.61,183.75 ZM 132.00 179.08 C132.00,178.13 130.88,174.58 129.50,171.19 C126.80,164.54 126.50,163.00 127.91,163.00 C128.41,163.00 130.07,166.17 131.59,170.05 C133.11,173.93 134.73,177.33 135.18,177.61 C136.62,178.50 136.07,179.75 134.00,180.29 C132.57,180.66 132.00,180.32 132.00,179.08 ZM 73.91 178.25 C73.87,177.84 73.30,173.23 72.66,168.00 L 71.50 158.50 L 68.15 164.30 C66.26,167.57 65.01,170.92 65.28,171.98 C65.72,173.63 65.49,173.72 63.39,172.77 C60.65,171.52 60.35,170.46 62.49,169.64 C64.51,168.87 71.24,158.20 70.49,156.98 C70.15,156.44 70.25,156.01 70.69,156.02 C72.98,156.06 73.90,158.19 74.54,165.01 C74.94,169.13 75.49,172.90 75.77,173.39 C76.53,174.70 80.99,166.87 80.99,164.21 C81.00,162.21 81.25,162.06 83.10,163.05 L 85.19 164.17 L 83.07 166.15 C81.90,167.24 79.56,170.58 77.88,173.57 C74.89,178.85 74.09,179.80 73.91,178.25 ZM 118.14 173.68 C118.06,172.14 117.58,170.08 117.07,169.13 C116.28,167.66 116.88,167.11 120.81,165.65 C123.69,164.58 125.01,164.39 124.24,165.16 C123.56,165.84 123.00,167.30 123.00,168.39 C123.00,170.36 122.98,170.36 121.58,168.44 C120.21,166.56 120.15,166.58 119.61,169.00 C119.31,170.38 118.88,172.62 118.67,174.00 C118.29,176.36 118.26,176.34 118.14,173.68 ZM 146.50 173.01 C147.29,171.71 138.10,158.82 136.91,159.56 C136.41,159.86 136.00,159.94 136.00,159.73 C136.00,159.14 145.09,152.73 145.34,153.14 C145.47,153.34 146.23,154.36 147.03,155.41 C148.41,157.22 148.37,157.26 146.25,156.13 C143.98,154.92 140.00,156.03 140.00,157.88 C140.00,160.00 144.01,162.21 146.65,161.55 L 149.39 160.86 L 147.03 162.78 L 144.66 164.69 L 147.31 168.16 C149.35,170.84 149.69,171.91 148.78,172.82 C147.35,174.25 145.64,174.39 146.50,173.01 ZM 152.46 168.71 C153.39,167.29 153.76,165.50 153.36,164.39 C152.52,162.06 153.34,162.76 154.85,165.65 C155.80,167.49 155.59,168.04 153.41,169.46 L 150.87 171.13 L 152.46 168.71 ZM 52.86 164.30 L 50.50 161.73 L 52.85 162.95 C54.15,163.63 56.06,163.96 57.10,163.68 C59.54,163.05 59.55,164.18 57.11,165.70 C55.53,166.69 54.85,166.46 52.86,164.30 ZM 133.51 163.01 C131.97,161.31 131.93,161.00 133.24,161.00 C134.09,161.00 135.07,161.74 135.42,162.64 C136.36,165.11 135.55,165.26 133.51,163.01 ZM 48.94 159.43 C48.20,158.54 48.12,158.02 48.74,158.19 C49.33,158.36 52.46,155.96 55.69,152.85 L 61.56 147.21 L 65.19 150.53 C68.78,153.82 68.79,153.88 66.83,155.65 C64.90,157.40 64.87,157.38 65.49,154.90 C65.93,153.16 65.61,151.92 64.51,151.01 C63.13,149.86 62.57,149.98 60.71,151.84 C58.87,153.69 58.72,154.32 59.77,156.00 C61.59,158.92 61.27,159.55 58.99,157.49 C57.04,155.73 56.91,155.73 54.74,157.69 C51.26,160.81 50.33,161.10 48.94,159.43 ZM 153.92 157.08 C152.32,155.47 151.00,153.48 151.00,152.65 C151.00,151.65 151.96,152.11 153.92,154.08 C157.29,157.44 162.24,158.00 165.17,155.35 C166.73,153.94 167.00,153.91 167.00,155.19 C167.00,157.62 163.59,160.00 160.09,160.00 C157.84,160.00 155.95,159.11 153.92,157.08 ZM 122.92 155.59 C121.36,154.06 105.31,152.06 93.13,151.88 L 78.76 151.67 L 72.88 146.23 C69.65,143.23 67.00,140.37 67.00,139.87 C67.00,138.28 75.30,133.03 83.40,129.51 C87.70,127.64 91.44,125.89 91.71,125.62 C92.15,125.18 91.10,122.07 86.26,109.50 C83.96,103.50 83.51,86.58 85.51,81.33 C88.97,72.28 99.70,66.43 111.47,67.18 C118.57,67.63 122.49,69.79 127.64,76.11 C130.38,79.46 130.88,81.02 131.51,88.10 C132.23,96.22 132.22,96.25 129.36,98.55 C127.06,100.40 126.75,101.10 127.75,102.13 C129.46,103.87 129.34,105.53 127.61,104.09 C125.82,102.61 124.00,95.35 124.00,89.71 C124.00,82.96 121.87,81.54 114.15,83.13 C109.72,84.04 106.17,84.12 100.97,83.40 C92.45,82.22 90.59,83.11 88.97,89.10 C88.38,91.31 87.64,93.77 87.34,94.56 C86.90,95.72 87.99,96.00 92.86,96.00 C100.43,96.00 101.13,97.02 100.31,106.85 C99.68,114.40 99.69,114.42 104.50,114.09 C106.23,113.97 106.16,114.16 104.00,115.44 C100.36,117.61 98.47,117.33 97.16,114.45 C96.24,112.44 96.30,111.33 97.41,109.18 C98.18,107.69 98.57,105.22 98.28,103.70 C97.85,101.41 97.39,101.06 95.63,101.64 C94.46,102.03 92.02,102.61 90.21,102.92 C88.40,103.24 86.86,103.72 86.79,104.00 C86.55,105.03 90.11,114.57 91.36,116.20 C92.27,117.40 95.47,118.28 102.08,119.17 L 111.50 120.42 L 105.50 121.53 C99.77,122.59 99.64,122.68 102.75,123.40 C107.31,124.46 106.79,125.76 101.50,126.55 C96.59,127.29 95.87,128.32 99.06,130.03 C101.52,131.35 105.57,131.57 109.00,130.56 C111.44,129.85 111.43,129.90 108.59,132.25 C106.89,133.66 105.98,135.15 106.40,135.83 C107.60,137.78 102.82,137.19 99.14,134.94 C97.29,133.81 95.56,133.10 95.31,133.36 C95.05,133.61 96.83,134.99 99.26,136.41 C107.46,141.21 116.74,139.28 120.52,131.97 C122.40,128.32 122.38,126.92 120.47,129.44 C119.66,130.51 119.00,130.88 119.00,130.26 C119.00,129.65 119.68,128.47 120.50,127.64 C121.32,126.82 122.00,125.64 122.00,125.02 C122.00,124.41 123.91,125.20 126.25,126.78 C128.59,128.37 134.10,131.61 138.50,133.99 C142.90,136.37 146.70,138.48 146.94,138.68 C148.02,139.58 136.12,150.19 130.94,152.95 C125.38,155.91 123.78,156.44 122.92,155.59 ZM 166.55 150.28 C166.20,149.37 165.21,148.97 164.03,149.28 C162.20,149.76 162.18,149.65 163.67,147.38 C165.03,145.31 165.41,145.18 166.38,146.46 C166.99,147.28 168.35,148.57 169.40,149.32 C171.24,150.65 171.24,150.70 169.21,151.23 C167.89,151.58 166.92,151.23 166.55,150.28 ZM 39.00 146.04 C39.00,145.78 40.89,143.65 43.21,141.29 L 47.42 137.00 L 40.46 137.00 L 33.50 137.00 L 40.96 130.04 C45.86,125.47 48.67,123.47 49.15,124.24 C49.59,124.95 47.64,127.47 44.19,130.66 L 38.50 135.91 L 42.70 135.95 C47.29,136.00 51.98,134.31 52.03,132.59 C52.05,131.99 52.51,132.27 53.06,133.22 C53.87,134.61 53.26,135.67 49.90,138.71 C47.60,140.78 45.00,143.03 44.11,143.71 C42.78,144.72 43.54,144.94 48.50,144.95 C51.80,144.96 55.16,144.55 55.97,144.04 C57.29,143.20 58.94,144.28 58.98,146.00 C58.99,146.27 54.49,146.50 49.00,146.50 C43.50,146.50 39.00,146.29 39.00,146.04 ZM 154.49 142.27 C156.85,139.71 157.08,139.65 158.71,141.28 C160.34,142.91 160.27,143.00 157.41,143.00 C155.76,143.00 153.86,143.45 153.19,143.99 C152.53,144.54 153.11,143.77 154.49,142.27 ZM 164.76 139.93 C163.81,139.37 162.50,137.92 161.87,136.71 C160.75,134.57 160.77,134.56 162.67,136.24 C167.71,140.70 176.14,138.76 177.88,132.74 C178.63,130.16 178.84,129.97 178.91,131.80 C179.03,134.77 176.53,139.58 174.46,140.38 C172.01,141.32 166.72,141.07 164.76,139.93 ZM 160.09 131.17 C159.97,126.79 164.55,122.00 168.85,122.00 C171.76,122.00 178.00,126.15 178.00,128.09 C178.00,128.59 177.10,128.10 176.00,127.00 C173.56,124.56 167.41,124.32 164.24,126.54 C163.03,127.39 161.62,129.53 161.11,131.29 L 160.18 134.50 L 160.09 131.17 ZM 123.08 115.42 C123.13,114.25 123.36,114.01 123.68,114.81 C123.97,115.53 123.94,116.40 123.60,116.73 C123.27,117.06 123.04,116.47 123.08,115.42 ZM 127.50 112.00 C127.84,111.45 128.32,111.00 128.56,111.00 C128.80,111.00 129.00,111.45 129.00,112.00 C129.00,112.55 128.52,113.00 127.94,113.00 C127.36,113.00 127.16,112.55 127.50,112.00 ZM 21.00 103.09 C21.00,102.60 21.90,102.42 23.00,102.71 C24.10,103.00 25.00,103.41 25.00,103.62 C25.00,103.83 24.10,104.00 23.00,104.00 C21.90,104.00 21.00,103.59 21.00,103.09 ZM 28.84 99.50 C28.65,97.03 28.83,95.00 29.24,95.00 C29.66,95.00 30.00,97.03 30.00,99.50 C30.00,101.97 29.82,104.00 29.60,104.00 C29.38,104.00 29.04,101.97 28.84,99.50 ZM 181.00 103.09 C181.00,102.60 181.90,102.42 183.00,102.71 C184.10,103.00 185.00,103.41 185.00,103.62 C185.00,103.83 184.10,104.00 183.00,104.00 C181.90,104.00 181.00,103.59 181.00,103.09 ZM 188.40 102.60 C188.10,101.82 188.02,99.69 188.21,97.85 C188.52,94.91 188.62,95.09 189.04,99.25 C189.53,104.12 189.35,105.07 188.40,102.60 ZM 194.00 103.09 C194.00,102.60 194.90,102.42 196.00,102.71 C197.10,103.00 198.00,103.41 198.00,103.62 C198.00,103.83 197.10,104.00 196.00,104.00 C194.90,104.00 194.00,103.59 194.00,103.09 ZM 107.06 100.66 C104.01,97.61 107.62,95.42 113.92,96.49 C117.03,97.01 117.75,97.56 117.75,99.38 C117.75,101.38 117.24,101.62 112.93,101.67 C110.28,101.69 107.64,101.24 107.06,100.66 ZM 190.92 98.75 C190.62,96.60 190.78,95.38 191.28,95.88 C191.76,96.36 192.00,98.05 191.80,99.63 C191.47,102.27 191.40,102.20 190.92,98.75 ZM 23.02 99.17 C23.64,97.89 23.90,96.18 23.59,95.37 C23.27,94.54 23.46,94.16 24.01,94.51 C25.44,95.39 25.23,97.34 23.44,99.56 C21.96,101.41 21.94,101.39 23.02,99.17 ZM 182.87 99.76 C183.62,98.80 184.00,97.11 183.71,96.00 C183.42,94.90 183.59,94.25 184.09,94.56 C185.60,95.49 185.12,98.66 183.25,100.13 C181.67,101.37 181.63,101.34 182.87,99.76 ZM 195.87 99.76 C196.62,98.80 197.00,97.11 196.71,96.00 C196.42,94.90 196.59,94.25 197.09,94.56 C198.60,95.49 198.12,98.66 196.25,100.13 C194.67,101.37 194.63,101.34 195.87,99.76 ZM 200.16 99.00 C200.16,97.62 200.38,97.06 200.66,97.75 C200.94,98.44 200.94,99.56 200.66,100.25 C200.38,100.94 200.16,100.38 200.16,99.00 ZM 14.35 98.46 C14.02,97.61 13.98,96.69 14.25,96.42 C14.52,96.14 14.99,96.84 15.28,97.96 C15.90,100.34 15.21,100.71 14.35,98.46 ZM 59.76 86.18 C59.14,83.81 45.27,74.68 43.39,75.41 C42.02,75.93 45.80,69.17 48.78,65.75 C50.87,63.36 53.57,63.55 55.44,66.22 C58.00,69.87 57.40,71.46 54.37,69.07 C50.99,66.42 49.50,66.46 47.52,69.25 C46.02,71.38 46.08,71.62 48.72,73.75 C52.21,76.56 53.49,76.57 55.44,73.78 C56.53,72.22 57.00,72.01 57.00,73.08 C57.00,73.91 56.44,75.17 55.75,75.87 C54.75,76.90 55.09,77.63 57.50,79.60 C59.15,80.95 61.29,81.86 62.25,81.62 C64.43,81.08 64.43,81.25 62.13,85.03 C60.49,87.72 60.20,87.86 59.76,86.18 ZM 151.12 86.23 C150.47,85.00 150.30,84.00 150.75,84.00 C151.20,84.00 152.36,82.66 153.33,81.02 C155.04,78.13 155.03,77.95 152.93,75.11 C150.97,72.47 150.48,72.29 147.80,73.22 C145.45,74.04 144.95,74.70 145.38,76.38 C145.87,78.30 145.74,78.26 143.98,76.00 C141.43,72.71 141.51,72.00 144.42,72.00 C145.75,72.00 150.74,71.07 155.50,69.94 C160.26,68.81 164.60,68.03 165.14,68.21 C165.67,68.39 163.50,72.19 160.31,76.66 C157.11,81.13 154.01,85.61 153.41,86.62 C152.37,88.36 152.25,88.33 151.12,86.23 ZM 158.76 73.49 C161.25,69.64 161.14,69.55 155.76,71.05 C152.06,72.08 152.03,72.12 153.62,74.55 C154.51,75.90 155.52,76.99 155.87,76.99 C156.21,76.98 157.52,75.41 158.76,73.49 ZM 17.29 85.26 C20.47,85.06 25.42,85.06 28.29,85.26 C31.15,85.47 28.55,85.63 22.50,85.63 C16.45,85.62 14.10,85.46 17.29,85.26 ZM 182.75 85.28 C184.54,85.05 187.46,85.05 189.25,85.28 C191.04,85.50 189.57,85.68 186.00,85.68 C182.43,85.68 180.96,85.50 182.75,85.28 ZM 32.81 78.32 C33.53,78.03 34.40,78.06 34.73,78.40 C35.06,78.73 34.47,78.96 33.42,78.92 C32.25,78.87 32.01,78.64 32.81,78.32 ZM 67.00 73.86 C67.00,72.61 65.81,67.39 64.36,62.27 C62.90,57.14 61.95,52.72 62.24,52.42 C62.53,52.13 66.64,54.39 71.38,57.45 C76.11,60.50 80.73,63.00 81.65,63.00 C83.16,63.00 83.15,63.18 81.54,64.96 C79.78,66.90 79.73,66.89 76.44,64.39 L 73.12 61.85 L 70.06 64.11 C68.38,65.36 67.00,66.49 67.00,66.62 C67.00,66.76 67.46,68.07 68.02,69.55 C68.77,71.54 69.54,72.09 71.02,71.71 C73.74,70.99 73.51,71.50 70.00,74.00 L 67.00 76.14 L 67.00 73.86 ZM 69.83 63.16 L 72.16 61.37 L 68.08 58.67 C63.55,55.67 63.53,55.69 65.16,61.13 C66.48,65.54 66.65,65.61 69.83,63.16 ZM 136.00 68.50 C134.62,67.71 134.02,67.05 134.66,67.04 C135.30,67.02 136.96,64.97 138.35,62.49 L 140.88 57.97 L 135.96 55.48 L 131.05 52.99 L 128.95 57.09 C127.80,59.35 127.10,61.81 127.38,62.56 C127.79,63.61 127.11,63.54 124.40,62.25 C121.36,60.80 121.15,60.49 122.82,59.87 C124.97,59.08 133.33,44.34 132.45,42.91 C131.66,41.65 132.32,41.76 135.64,43.49 C137.21,44.32 137.80,44.99 136.94,44.99 C135.61,45.00 131.35,51.76 132.21,52.50 C133.14,53.31 141.24,57.09 141.47,56.82 C142.79,55.29 144.63,50.23 144.25,49.17 C143.91,48.21 144.71,48.33 147.14,49.62 C149.28,50.75 149.95,51.52 148.99,51.73 C147.13,52.13 138.63,67.59 139.50,68.99 C140.36,70.39 138.96,70.19 136.00,68.50 ZM 170.81 64.32 C171.53,64.03 172.40,64.06 172.73,64.40 C173.06,64.73 172.47,64.96 171.42,64.92 C170.25,64.87 170.01,64.64 170.81,64.32 ZM 84.16 60.45 C82.48,56.75 82.73,56.33 85.09,58.87 C87.53,61.49 91.72,61.43 93.39,58.75 C95.09,56.04 92.97,53.70 87.39,52.14 C84.70,51.39 81.94,50.32 81.25,49.77 C79.53,48.38 79.68,44.78 81.56,42.44 C83.03,40.60 83.05,40.62 81.96,42.87 C80.43,46.01 81.94,47.48 89.04,49.75 C94.22,51.41 94.52,51.69 94.80,55.14 C95.05,58.09 94.60,59.17 92.42,60.89 C88.74,63.78 85.60,63.61 84.16,60.45 ZM 103.92 57.08 C99.84,52.99 99.76,46.30 103.75,42.21 C105.26,40.66 105.92,40.15 105.21,41.07 C104.50,42.00 103.66,44.31 103.35,46.22 C102.16,53.55 108.51,59.41 115.13,57.10 C119.84,55.46 119.75,56.48 115.02,58.37 C109.31,60.66 107.27,60.42 103.92,57.08 ZM 160.00 53.57 C160.00,53.30 160.90,52.59 162.00,52.00 C163.10,51.41 164.00,51.15 164.00,51.43 C164.00,51.70 163.10,52.41 162.00,53.00 C160.90,53.59 160.00,53.85 160.00,53.57 ZM 60.89 42.75 C59.72,40.51 59.72,40.51 61.85,42.40 C64.24,44.52 64.46,45.00 63.04,45.00 C62.50,45.00 61.54,43.99 60.89,42.75 ZM 88.50 43.00 C88.11,42.37 86.83,41.47 85.65,40.99 C83.63,40.18 83.65,40.12 86.14,40.06 C87.72,40.03 89.04,40.67 89.42,41.64 C90.17,43.61 89.49,44.61 88.50,43.00 ZM 117.33 40.45 C115.23,38.09 115.23,38.00 117.11,38.00 C119.06,38.00 120.50,40.06 119.84,41.92 C119.65,42.46 118.52,41.80 117.33,40.45 ZM 67.40 38.75 L 65.50 36.50 L 67.75 38.40 C69.86,40.20 70.46,41.00 69.65,41.00 C69.47,41.00 68.45,39.99 67.40,38.75 ZM 142.88 38.25 C143.40,37.29 145.45,34.70 147.44,32.50 C150.91,28.67 150.88,28.74 146.88,34.25 C142.77,39.93 141.03,41.66 142.88,38.25 ZM 75.26 36.75 C74.71,36.06 73.73,34.38 73.08,33.00 C71.93,30.59 71.95,30.57 73.52,32.50 C75.46,34.88 77.24,38.00 76.66,38.00 C76.43,38.00 75.80,37.44 75.26,36.75 ZM 129.20 29.98 C130.35,27.21 131.46,25.12 131.67,25.33 C132.14,25.80 128.26,35.00 127.59,35.00 C127.33,35.00 128.05,32.74 129.20,29.98 ZM 81.56 32.29 C81.02,30.87 81.14,30.75 82.12,31.73 C82.81,32.41 83.11,33.22 82.81,33.53 C82.50,33.83 81.94,33.28 81.56,32.29 ZM 89.57 31.43 C89.20,29.96 89.10,28.57 89.33,28.34 C89.57,28.10 90.06,29.11 90.43,30.57 C90.80,32.04 90.90,33.43 90.67,33.66 C90.43,33.90 89.94,32.89 89.57,31.43 ZM 105.00 27.50 L 105.00 23.00 L 98.00 23.00 C89.04,23.00 88.83,21.19 97.75,20.80 L 104.50 20.50 L 104.80 15.25 C105.01,11.57 105.52,10.00 106.50,10.00 C107.48,10.00 107.99,11.57 108.20,15.25 L 108.50 20.50 L 114.75 20.80 C122.99,21.19 122.83,23.00 114.55,23.00 L 108.09 23.00 L 107.45 26.44 C107.09,28.32 107.10,30.35 107.46,30.94 C107.82,31.52 107.42,32.00 106.56,32.00 C105.38,32.00 105.00,30.91 105.00,27.50 ZM 97.08 29.42 C97.13,28.25 97.36,28.01 97.68,28.81 C97.97,29.53 97.94,30.40 97.60,30.73 C97.27,31.06 97.04,30.47 97.08,29.42 ZM 70.00 28.00 C69.41,26.90 69.15,26.00 69.43,26.00 C69.70,26.00 70.41,26.90 71.00,28.00 C71.59,29.10 71.85,30.00 71.57,30.00 C71.30,30.00 70.59,29.10 70.00,28.00 ZM 121.08 28.42 C121.13,27.25 121.36,27.01 121.68,27.81 C121.97,28.53 121.94,29.40 121.60,29.73 C121.27,30.06 121.04,29.47 121.08,28.42 ZM 114.16 16.00 C114.16,14.62 114.38,14.06 114.66,14.75 C114.94,15.44 114.94,16.56 114.66,17.25 C114.38,17.94 114.16,17.38 114.16,16.00 Z" fill="rgba(0,0,0,1)"/>
	</g>
</svg>