<?xml version="1.0" encoding="UTF-8" standalone="no"?>
<!DOCTYPE svg PUBLIC "-//W3C//DTD SVG 1.1//EN" "http://www.w3.org/Graphics/SVG/1.1/DTD/svg11.dtd">
<svg width="213" height="186" viewBox="0 0 213 186" version="1.1" xmlns="http://www.w3.org/2000/svg" xmlns:xlink="http://www.w3.org/1999/xlink" xml:space="preserve" xmlns:serif="http://www.serif.com/" style="fill-rule:evenodd;clip-rule:evenodd;stroke-linejoin:round;stroke-miterlimit:2;">
    <!-- Generic Catholic Novena Splash - Rosary Beads Design -->
    <g transform="translate(106.5, 93)">
		<!-- Center Cross -->
		<g transform="translate(0, 40)">
			<rect x="-4" y="-15" width="8" height="30" rx="2" fill="rgba(0,0,0,1)"/>
			<rect x="-10" y="-4" width="20" height="8" rx="2" fill="rgba(0,0,0,1)"/>
		</g>
		
		<!-- Rosary Circle of Beads (5 decades) -->
		<!-- Large beads (Our Father beads) -->
		<circle cx="0" cy="-35" r="6" fill="rgba(0,0,0,1)"/>
		<circle cx="35" cy="0" r="6" fill="rgba(0,0,0,1)"/>
		<circle cx="0" cy="35" r="6" fill="rgba(0,0,0,1)"/>
		<circle cx="-35" cy="0" r="6" fill="rgba(0,0,0,1)"/>
		
		<!-- Small beads (Hail Mary beads) arranged in groups representing decades -->
		<!-- Top decade -->
		<circle cx="-11" cy="-33" r="3.5" fill="rgba(0,0,0,1)"/>
		<circle cx="-5" cy="-36" r="3.5" fill="rgba(0,0,0,1)"/>
		<circle cx="5" cy="-36" r="3.5" fill="rgba(0,0,0,1)"/>
		<circle cx="11" cy="-33" r="3.5" fill="rgba(0,0,0,1)"/>
		
		<!-- Right decade -->
		<circle cx="33" cy="-11" r="3.5" fill="rgba(0,0,0,1)"/>
		<circle cx="36" cy="-5" r="3.5" fill="rgba(0,0,0,1)"/>
		<circle cx="36" cy="5" r="3.5" fill="rgba(0,0,0,1)"/>
		<circle cx="33" cy="11" r="3.5" fill="rgba(0,0,0,1)"/>
		
		<!-- Bottom decade -->
		<circle cx="11" cy="33" r="3.5" fill="rgba(0,0,0,1)"/>
		<circle cx="5" cy="36" r="3.5" fill="rgba(0,0,0,1)"/>
		<circle cx="-5" cy="36" r="3.5" fill="rgba(0,0,0,1)"/>
		<circle cx="-11" cy="33" r="3.5" fill="rgba(0,0,0,1)"/>
		
		<!-- Left decade -->
		<circle cx="-33" cy="11" r="3.5" fill="rgba(0,0,0,1)"/>
		<circle cx="-36" cy="5" r="3.5" fill="rgba(0,0,0,1)"/>
		<circle cx="-36" cy="-5" r="3.5" fill="rgba(0,0,0,1)"/>
		<circle cx="-33" cy="-11" r="3.5" fill="rgba(0,0,0,1)"/>
		
		<!-- Number 9 in center to represent novena -->
		<text x="0" y="5" font-family="Arial, sans-serif" font-size="28" font-weight="bold" fill="rgba(0,0,0,1)" text-anchor="middle">9</text>
	</g>
</svg>