<?xml version="1.0" encoding="UTF-8" standalone="no"?>
<!DOCTYPE svg PUBLIC "-//W3C//DTD SVG 1.1//EN" "http://www.w3.org/Graphics/SVG/1.1/DTD/svg11.dtd">
<svg width="456" height="456" viewBox="0 0 456 456" version="1.1" xmlns="http://www.w3.org/2000/svg">
	<!-- Generic Catholic Novena Icon - Rosary Beads Design -->
	<g transform="translate(228, 228)">
		<!-- Center Cross -->
		<g transform="translate(0, 90)">
			<rect x="-8" y="-30" width="16" height="60" rx="3" fill="rgba(0,0,0,1)"/>
			<rect x="-20" y="-8" width="40" height="16" rx="3" fill="rgba(0,0,0,1)"/>
		</g>
		
		<!-- Rosary Circle of Beads (4 decades - stylized representation) -->
		<!-- Large beads (Our Father beads) -->
		<circle cx="0" cy="-80" r="12" fill="rgba(0,0,0,1)"/>
		<circle cx="80" cy="0" r="12" fill="rgba(0,0,0,1)"/>
		<circle cx="0" cy="80" r="12" fill="rgba(0,0,0,1)"/>
		<circle cx="-80" cy="0" r="12" fill="rgba(0,0,0,1)"/>
		
		<!-- Small beads (Hail Mary beads) - stylized with 4 beads per decade instead of traditional 10 for visual clarity -->
		<!-- Top decade -->
		<circle cx="-25" cy="-75" r="7" fill="rgba(0,0,0,1)"/>
		<circle cx="-12" cy="-82" r="7" fill="rgba(0,0,0,1)"/>
		<circle cx="12" cy="-82" r="7" fill="rgba(0,0,0,1)"/>
		<circle cx="25" cy="-75" r="7" fill="rgba(0,0,0,1)"/>
		
		<!-- Right decade -->
		<circle cx="75" cy="-25" r="7" fill="rgba(0,0,0,1)"/>
		<circle cx="82" cy="-12" r="7" fill="rgba(0,0,0,1)"/>
		<circle cx="82" cy="12" r="7" fill="rgba(0,0,0,1)"/>
		<circle cx="75" cy="25" r="7" fill="rgba(0,0,0,1)"/>
		
		<!-- Bottom decade -->
		<circle cx="25" cy="75" r="7" fill="rgba(0,0,0,1)"/>
		<circle cx="12" cy="82" r="7" fill="rgba(0,0,0,1)"/>
		<circle cx="-12" cy="82" r="7" fill="rgba(0,0,0,1)"/>
		<circle cx="-25" cy="75" r="7" fill="rgba(0,0,0,1)"/>
		
		<!-- Left decade -->
		<circle cx="-75" cy="25" r="7" fill="rgba(0,0,0,1)"/>
		<circle cx="-82" cy="12" r="7" fill="rgba(0,0,0,1)"/>
		<circle cx="-82" cy="-12" r="7" fill="rgba(0,0,0,1)"/>
		<circle cx="-75" cy="-25" r="7" fill="rgba(0,0,0,1)"/>
		
		<!-- Number 9 in center to represent novena -->
		<text x="0" y="10" font-family="Arial, sans-serif" font-size="60" font-weight="bold" fill="rgba(0,0,0,1)" text-anchor="middle">9</text>
	</g>
</svg>